# xmcd
#
# Track frame offsets:
#	150
#	17256
#	34639
#	48524
#	66259
#	90495
#	102594
#	117531
#	136120
#	150169
#	172245
#	211556
#	229579
#
# Disc length: 3364 seconds
#
# Revision: 1
# Processed by: cddbd v1.5.1PL0 Copyright (c) Steve Scherf et al.
# Submitted via: audiograbber 1.81.03
#
DISCID=9d0d220d
DTITLE=Manjifiko and Turbolenca - Export Import
DYEAR=2004
DGENRE=Fusion
TTITLE0=Hir Aj Kam Hir Aj Go
TTITLE1=Samo Malo
TTITLE2=Madona
TTITLE3=Un, Dos, Tres, Urnebes, Zemljotres
TTITLE4=Balkanto No.1
TTITLE5=Ne Pitaj
TTITLE6=Nisi Za Mene Ti
TTITLE7=Jenkiz In Da Harem
TTITLE8=Jedina Neverna
TTITLE9=Tu Meni Tu Mach
TTITLE10=Bonus Track 01
TTITLE11=Bonus Track 02
TTITLE12=DATA
EXTD=
EXTT0=
EXTT1=
EXTT2=
EXTT3=
EXTT4=
EXTT5=
EXTT6=
EXTT7=
EXTT8=
EXTT9=
EXTT10=
EXTT11=
EXTT12=
PLAYORDER=
